solid Default
  facet normal 9.999750e-01 7.067647e-03 2.431922e-16
    outer loop
      vertex 9.934741e+00 -6.046168e+00 4.000000e+00
      vertex 9.934741e+00 -6.046168e+00 9.350899e-15
      vertex 9.917626e+00 -3.624701e+00 8.753619e-15
    endloop
  endfacet
  facet normal 9.723557e-01 -2.335048e-01 2.953506e-16
    outer loop
      vertex 9.369303e+00 -8.400753e+00 4.000000e+00
      vertex 9.369303e+00 -8.400753e+00 9.789114e-15
      vertex 9.934741e+00 -6.046168e+00 9.350899e-15
    endloop
  endfacet
  facet normal 8.877193e-01 -4.603851e-01 3.301904e-16
    outer loop
      vertex 8.254468e+00 -1.055039e+01 4.000000e+00
      vertex 8.254468e+00 -1.055039e+01 1.004257e-14
      vertex 9.369303e+00 -8.400753e+00 9.789114e-15
    endloop
  endfacet
  facet normal 7.510290e-01 -6.602693e-01 3.456684e-16
    outer loop
      vertex 6.655608e+00 -1.236903e+01 4.000000e+00
      vertex 6.655608e+00 -1.236903e+01 1.009640e-14
      vertex 8.254468e+00 -1.055039e+01 1.004257e-14
    endloop
  endfacet
  facet normal 5.702998e-01 -8.214366e-01 3.408771e-16
    outer loop
      vertex 4.666477e+00 -1.375002e+01 4.000000e+00
      vertex 4.666477e+00 -1.375002e+01 9.947447e-15
      vertex 6.655608e+00 -1.236903e+01 1.009640e-14
    endloop
  endfacet
  facet normal 3.561294e-01 -9.344366e-01 3.160975e-16
    outer loop
      vertex 2.403713e+00 -1.461240e+01 4.000000e+00
      vertex 2.403713e+00 -1.461240e+01 9.604451e-15
      vertex 4.666477e+00 -1.375002e+01 9.947447e-15
    endloop
  endfacet
  facet normal 1.210764e-01 -9.926432e-01 2.727826e-16
    outer loop
      vertex 1.314306e-15 -1.490559e+01 4.000000e+00
      vertex 2.294023e-15 -1.490559e+01 9.087522e-15
      vertex 2.403713e+00 -1.461240e+01 9.604451e-15
    endloop
  endfacet
  facet normal -1.210764e-01 -9.926432e-01 2.134723e-16
    outer loop
      vertex -2.403713e+00 -1.461240e+01 4.000000e+00
      vertex -2.403713e+00 -1.461240e+01 8.426972e-15
      vertex 2.294023e-15 -1.490559e+01 9.087522e-15
    endloop
  endfacet
  facet normal -3.561294e-01 -9.344366e-01 1.416444e-16
    outer loop
      vertex -4.666477e+00 -1.375002e+01 4.000000e+00
      vertex -4.666477e+00 -1.375002e+01 7.661533e-15
      vertex -2.403713e+00 -1.461240e+01 8.426972e-15
    endloop
  endfacet
  facet normal -5.702998e-01 -8.214366e-01 6.151078e-17
    outer loop
      vertex -6.655608e+00 -1.236903e+01 4.000000e+00
      vertex -6.655608e+00 -1.236903e+01 6.836090e-15
      vertex -4.666477e+00 -1.375002e+01 7.661533e-15
    endloop
  endfacet
  facet normal -7.510290e-01 -6.602693e-01 -2.222971e-17
    outer loop
      vertex -8.254468e+00 -1.055039e+01 4.000000e+00
      vertex -8.254468e+00 -1.055039e+01 5.999044e-15
      vertex -6.655608e+00 -1.236903e+01 6.836090e-15
    endloop
  endfacet
  facet normal -8.877193e-01 -4.603851e-01 -1.046667e-16
    outer loop
      vertex -9.369303e+00 -8.400753e+00 4.000000e+00
      vertex -9.369303e+00 -8.400753e+00 5.199479e-15
      vertex -8.254468e+00 -1.055039e+01 5.999044e-15
    endloop
  endfacet
  facet normal -9.723557e-01 -2.335048e-01 -1.809663e-16
    outer loop
      vertex -9.934741e+00 -6.046168e+00 4.000000e+00
      vertex -9.934741e+00 -6.046168e+00 4.484280e-15
      vertex -9.369303e+00 -8.400753e+00 5.199479e-15
    endloop
  endfacet
  facet normal -9.999750e-01 7.067647e-03 -2.466543e-16
    outer loop
      vertex -9.917626e+00 -3.624701e+00 4.000000e+00
      vertex -9.917626e+00 -3.624701e+00 3.895383e-15
      vertex -9.934741e+00 -6.046168e+00 4.484280e-15
    endloop
  endfacet
  facet normal -9.999750e-01 7.067647e-03 -2.466543e-16
    outer loop
      vertex -9.934741e+00 -6.046168e+00 4.484280e-15
      vertex -9.934741e+00 -6.046168e+00 4.000000e+00
      vertex -9.917626e+00 -3.624701e+00 4.000000e+00
    endloop
  endfacet
  facet normal -9.723557e-01 -2.335048e-01 -1.809663e-16
    outer loop
      vertex -9.369303e+00 -8.400753e+00 5.199479e-15
      vertex -9.369303e+00 -8.400753e+00 4.000000e+00
      vertex -9.934741e+00 -6.046168e+00 4.000000e+00
    endloop
  endfacet
  facet normal -8.877193e-01 -4.603851e-01 -1.046667e-16
    outer loop
      vertex -8.254468e+00 -1.055039e+01 5.999044e-15
      vertex -8.254468e+00 -1.055039e+01 4.000000e+00
      vertex -9.369303e+00 -8.400753e+00 4.000000e+00
    endloop
  endfacet
  facet normal -7.510290e-01 -6.602693e-01 -2.222971e-17
    outer loop
      vertex -6.655608e+00 -1.236903e+01 6.836090e-15
      vertex -6.655608e+00 -1.236903e+01 4.000000e+00
      vertex -8.254468e+00 -1.055039e+01 4.000000e+00
    endloop
  endfacet
  facet normal -5.702998e-01 -8.214366e-01 6.151078e-17
    outer loop
      vertex -4.666477e+00 -1.375002e+01 7.661533e-15
      vertex -4.666477e+00 -1.375002e+01 4.000000e+00
      vertex -6.655608e+00 -1.236903e+01 4.000000e+00
    endloop
  endfacet
  facet normal -3.561294e-01 -9.344366e-01 1.416444e-16
    outer loop
      vertex -2.403713e+00 -1.461240e+01 8.426972e-15
      vertex -2.403713e+00 -1.461240e+01 4.000000e+00
      vertex -4.666477e+00 -1.375002e+01 4.000000e+00
    endloop
  endfacet
  facet normal -1.210764e-01 -9.926432e-01 2.134723e-16
    outer loop
      vertex 2.294023e-15 -1.490559e+01 9.087522e-15
      vertex 1.314306e-15 -1.490559e+01 4.000000e+00
      vertex -2.403713e+00 -1.461240e+01 4.000000e+00
    endloop
  endfacet
  facet normal 1.210764e-01 -9.926432e-01 2.727826e-16
    outer loop
      vertex 2.403713e+00 -1.461240e+01 9.604451e-15
      vertex 2.403713e+00 -1.461240e+01 4.000000e+00
      vertex 1.314306e-15 -1.490559e+01 4.000000e+00
    endloop
  endfacet
  facet normal 3.561294e-01 -9.344366e-01 3.160975e-16
    outer loop
      vertex 4.666477e+00 -1.375002e+01 9.947447e-15
      vertex 4.666477e+00 -1.375002e+01 4.000000e+00
      vertex 2.403713e+00 -1.461240e+01 4.000000e+00
    endloop
  endfacet
  facet normal 5.702998e-01 -8.214366e-01 3.408771e-16
    outer loop
      vertex 6.655608e+00 -1.236903e+01 1.009640e-14
      vertex 6.655608e+00 -1.236903e+01 4.000000e+00
      vertex 4.666477e+00 -1.375002e+01 4.000000e+00
    endloop
  endfacet
  facet normal 7.510290e-01 -6.602693e-01 3.456684e-16
    outer loop
      vertex 8.254468e+00 -1.055039e+01 1.004257e-14
      vertex 8.254468e+00 -1.055039e+01 4.000000e+00
      vertex 6.655608e+00 -1.236903e+01 4.000000e+00
    endloop
  endfacet
  facet normal 8.877193e-01 -4.603851e-01 3.301904e-16
    outer loop
      vertex 9.369303e+00 -8.400753e+00 9.789114e-15
      vertex 9.369303e+00 -8.400753e+00 4.000000e+00
      vertex 8.254468e+00 -1.055039e+01 4.000000e+00
    endloop
  endfacet
  facet normal 9.723557e-01 -2.335048e-01 2.953506e-16
    outer loop
      vertex 9.934741e+00 -6.046168e+00 9.350899e-15
      vertex 9.934741e+00 -6.046168e+00 4.000000e+00
      vertex 9.369303e+00 -8.400753e+00 4.000000e+00
    endloop
  endfacet
  facet normal 9.999750e-01 7.067647e-03 2.431922e-16
    outer loop
      vertex 9.917626e+00 -3.624701e+00 8.753619e-15
      vertex 9.917626e+00 -3.624701e+00 4.000000e+00
      vertex 9.934741e+00 -6.046168e+00 4.000000e+00
    endloop
  endfacet
  facet normal -9.917627e-01 1.280890e-01 -2.742846e-16
    outer loop
      vertex -9.917626e+00 -3.624701e+00 3.895383e-15
      vertex -9.917626e+00 -3.624701e+00 4.000000e+00
      vertex -7.580588e+00 1.447043e+01 4.000000e+00
    endloop
  endfacet
  facet normal -9.917627e-01 1.280890e-01 -2.742846e-16
    outer loop
      vertex -7.580588e+00 1.447043e+01 4.000000e+00
      vertex -7.580588e+00 1.447043e+01 3.576352e-17
      vertex -9.917626e+00 -3.624701e+00 3.895383e-15
    endloop
  endfacet
  facet normal 9.917627e-01 1.280890e-01 2.115390e-16
    outer loop
      vertex 9.917626e+00 -3.624701e+00 4.000000e+00
      vertex 9.917626e+00 -3.624701e+00 8.753619e-15
      vertex 7.580588e+00 1.447043e+01 3.749181e-15
    endloop
  endfacet
  facet normal 9.917627e-01 1.280890e-01 2.115390e-16
    outer loop
      vertex 7.580588e+00 1.447043e+01 3.749181e-15
      vertex 7.580588e+00 1.447043e+01 4.000000e+00
      vertex 9.917626e+00 -3.624701e+00 4.000000e+00
    endloop
  endfacet
  facet normal -9.615174e-01 2.747440e-01 -3.027967e-16
    outer loop
      vertex -7.539564e+00 1.461401e+01 4.000000e+00
      vertex -7.539564e+00 1.461401e+01 1.064577e-17
      vertex -7.580588e+00 1.447043e+01 3.576352e-17
    endloop
  endfacet
  facet normal -8.375097e-01 5.464225e-01 -3.389656e-16
    outer loop
      vertex -7.457971e+00 1.473906e+01 4.000000e+00
      vertex -7.457971e+00 1.473906e+01 0.000000e+00
      vertex -7.539564e+00 1.461401e+01 1.064577e-17
    endloop
  endfacet
  facet normal -6.388068e-01 7.693672e-01 -3.449032e-16
    outer loop
      vertex -7.343088e+00 1.483445e+01 4.000000e+00
      vertex -7.343088e+00 1.483445e+01 4.775251e-18
      vertex -7.457971e+00 1.473906e+01 0.000000e+00
    endloop
  endfacet
  facet normal -3.831307e-01 9.236941e-01 -3.200798e-16
    outer loop
      vertex -7.205162e+00 1.489166e+01 4.000000e+00
      vertex -7.205162e+00 1.489166e+01 2.454488e-17
      vertex -7.343088e+00 1.483445e+01 4.775251e-18
    endloop
  endfacet
  facet normal -9.328420e-02 9.956395e-01 -2.667094e-16
    outer loop
      vertex -7.056491e+00 1.490559e+01 4.000000e+00
      vertex -7.056491e+00 1.490559e+01 5.754687e-17
      vertex -7.205162e+00 1.489166e+01 2.454488e-17
    endloop
  endfacet
  facet normal 2.048820e-01 9.787866e-01 -1.895520e-16
    outer loop
      vertex -6.910338e+00 1.487500e+01 4.000000e+00
      vertex -6.910338e+00 1.487500e+01 1.008375e-16
      vertex -7.056491e+00 1.490559e+01 5.754687e-17
    endloop
  endfacet
  facet normal 2.048820e-01 9.787866e-01 -1.895520e-16
    outer loop
      vertex -7.056491e+00 1.490559e+01 5.754687e-17
      vertex -7.056491e+00 1.490559e+01 4.000000e+00
      vertex -6.910338e+00 1.487500e+01 4.000000e+00
    endloop
  endfacet
  facet normal -9.328420e-02 9.956395e-01 -2.667094e-16
    outer loop
      vertex -7.205162e+00 1.489166e+01 2.454488e-17
      vertex -7.205162e+00 1.489166e+01 4.000000e+00
      vertex -7.056491e+00 1.490559e+01 4.000000e+00
    endloop
  endfacet
  facet normal -3.831307e-01 9.236941e-01 -3.200798e-16
    outer loop
      vertex -7.343088e+00 1.483445e+01 4.775251e-18
      vertex -7.343088e+00 1.483445e+01 4.000000e+00
      vertex -7.205162e+00 1.489166e+01 4.000000e+00
    endloop
  endfacet
  facet normal -6.388068e-01 7.693672e-01 -3.449032e-16
    outer loop
      vertex -7.457971e+00 1.473906e+01 0.000000e+00
      vertex -7.457971e+00 1.473906e+01 4.000000e+00
      vertex -7.343088e+00 1.483445e+01 4.000000e+00
    endloop
  endfacet
  facet normal -8.375097e-01 5.464225e-01 -3.389656e-16
    outer loop
      vertex -7.539564e+00 1.461401e+01 1.064577e-17
      vertex -7.539564e+00 1.461401e+01 4.000000e+00
      vertex -7.457971e+00 1.473906e+01 4.000000e+00
    endloop
  endfacet
  facet normal -9.615174e-01 2.747440e-01 -3.027967e-16
    outer loop
      vertex -7.580588e+00 1.447043e+01 3.576352e-17
      vertex -7.580588e+00 1.447043e+01 4.000000e+00
      vertex -7.539564e+00 1.461401e+01 4.000000e+00
    endloop
  endfacet
  facet normal 3.487385e-01 9.372200e-01 -1.441364e-16
    outer loop
      vertex -3.800000e+00 1.371764e+01 1.146120e-15
      vertex -6.910338e+00 1.487500e+01 1.008375e-16
      vertex -6.910338e+00 1.487500e+01 4.000000e+00
    endloop
  endfacet
  facet normal 3.487385e-01 9.372200e-01 -1.441364e-16
    outer loop
      vertex -6.910338e+00 1.487500e+01 4.000000e+00
      vertex -3.800000e+00 1.371764e+01 4.000000e+00
      vertex -3.800000e+00 1.371764e+01 1.146120e-15
    endloop
  endfacet
  facet normal 1.000000e+00 1.836970e-16 2.449294e-16
    outer loop
      vertex -3.800000e+00 1.371764e+01 1.146120e-15
      vertex -3.800000e+00 1.371764e+01 4.000000e+00
      vertex -3.800000e+00 1.324073e+01 4.000000e+00
    endloop
  endfacet
  facet normal 1.000000e+00 1.836970e-16 2.449294e-16
    outer loop
      vertex -3.800000e+00 1.324073e+01 4.000000e+00
      vertex -3.800000e+00 1.324073e+01 1.262930e-15
      vertex -3.800000e+00 1.371764e+01 1.146120e-15
    endloop
  endfacet
  facet normal -2.048820e-01 9.787866e-01 -2.899152e-16
    outer loop
      vertex 7.056491e+00 1.490559e+01 4.000000e+00
      vertex 7.056491e+00 1.490559e+01 3.514231e-15
      vertex 6.910338e+00 1.487500e+01 3.485927e-15
    endloop
  endfacet
  facet normal 9.328420e-02 9.956395e-01 -2.210133e-16
    outer loop
      vertex 7.205162e+00 1.489166e+01 4.000000e+00
      vertex 7.205162e+00 1.489166e+01 3.554056e-15
      vertex 7.056491e+00 1.490559e+01 3.514231e-15
    endloop
  endfacet
  facet normal 3.831307e-01 9.236941e-01 -1.323999e-16
    outer loop
      vertex 7.343088e+00 1.483445e+01 4.000000e+00
      vertex 7.343088e+00 1.483445e+01 3.601851e-15
      vertex 7.205162e+00 1.489166e+01 3.554056e-15
    endloop
  endfacet
  facet normal 6.388068e-01 7.693672e-01 -3.197806e-17
    outer loop
      vertex 7.457971e+00 1.473906e+01 4.000000e+00
      vertex 7.457971e+00 1.473906e+01 3.653352e-15
      vertex 7.343088e+00 1.483445e+01 3.601851e-15
    endloop
  endfacet
  facet normal 8.375097e-01 5.464225e-01 7.129580e-17
    outer loop
      vertex 7.539564e+00 1.461401e+01 4.000000e+00
      vertex 7.539564e+00 1.461401e+01 3.703967e-15
      vertex 7.457971e+00 1.473906e+01 3.653352e-15
    endloop
  endfacet
  facet normal 9.615174e-01 2.747440e-01 1.682110e-16
    outer loop
      vertex 7.580588e+00 1.447043e+01 4.000000e+00
      vertex 7.580588e+00 1.447043e+01 3.749181e-15
      vertex 7.539564e+00 1.461401e+01 3.703967e-15
    endloop
  endfacet
  facet normal 9.615174e-01 2.747440e-01 1.682110e-16
    outer loop
      vertex 7.539564e+00 1.461401e+01 3.703967e-15
      vertex 7.539564e+00 1.461401e+01 4.000000e+00
      vertex 7.580588e+00 1.447043e+01 4.000000e+00
    endloop
  endfacet
  facet normal 8.375097e-01 5.464225e-01 7.129580e-17
    outer loop
      vertex 7.457971e+00 1.473906e+01 3.653352e-15
      vertex 7.457971e+00 1.473906e+01 4.000000e+00
      vertex 7.539564e+00 1.461401e+01 4.000000e+00
    endloop
  endfacet
  facet normal 6.388068e-01 7.693672e-01 -3.197806e-17
    outer loop
      vertex 7.343088e+00 1.483445e+01 3.601851e-15
      vertex 7.343088e+00 1.483445e+01 4.000000e+00
      vertex 7.457971e+00 1.473906e+01 4.000000e+00
    endloop
  endfacet
  facet normal 3.831307e-01 9.236941e-01 -1.323999e-16
    outer loop
      vertex 7.205162e+00 1.489166e+01 3.554056e-15
      vertex 7.205162e+00 1.489166e+01 4.000000e+00
      vertex 7.343088e+00 1.483445e+01 4.000000e+00
    endloop
  endfacet
  facet normal 9.328420e-02 9.956395e-01 -2.210133e-16
    outer loop
      vertex 7.056491e+00 1.490559e+01 3.514231e-15
      vertex 7.056491e+00 1.490559e+01 4.000000e+00
      vertex 7.205162e+00 1.489166e+01 4.000000e+00
    endloop
  endfacet
  facet normal -2.048820e-01 9.787866e-01 -2.899152e-16
    outer loop
      vertex 6.910338e+00 1.487500e+01 3.485927e-15
      vertex 6.910338e+00 1.487500e+01 4.000000e+00
      vertex 7.056491e+00 1.490559e+01 4.000000e+00
    endloop
  endfacet
  facet normal -3.487385e-01 9.372200e-01 -3.149690e-16
    outer loop
      vertex 3.800000e+00 1.371764e+01 3.007583e-15
      vertex 3.800000e+00 1.371764e+01 4.000000e+00
      vertex 6.910338e+00 1.487500e+01 4.000000e+00
    endloop
  endfacet
  facet normal -3.487385e-01 9.372200e-01 -3.149690e-16
    outer loop
      vertex 6.910338e+00 1.487500e+01 4.000000e+00
      vertex 6.910338e+00 1.487500e+01 3.485927e-15
      vertex 3.800000e+00 1.371764e+01 3.007583e-15
    endloop
  endfacet
  facet normal -1.000000e+00 -1.836970e-16 -2.449294e-16
    outer loop
      vertex 3.800000e+00 1.371764e+01 4.000000e+00
      vertex 3.800000e+00 1.371764e+01 3.007583e-15
      vertex 3.800000e+00 1.324073e+01 3.124393e-15
    endloop
  endfacet
  facet normal -1.000000e+00 -1.836970e-16 -2.449294e-16
    outer loop
      vertex 3.800000e+00 1.324073e+01 3.124393e-15
      vertex 3.800000e+00 1.324073e+01 4.000000e+00
      vertex 3.800000e+00 1.371764e+01 4.000000e+00
    endloop
  endfacet
  facet normal -8.941489e-02 -9.959944e-01 2.220479e-16
    outer loop
      vertex 4.188839e+00 1.275324e+01 4.000000e+00
      vertex 4.188839e+00 1.275324e+01 3.339031e-15
      vertex 4.322555e+00 1.274124e+01 3.374722e-15
    endloop
  endfacet
  facet normal -3.512022e-01 -9.362996e-01 1.433075e-16
    outer loop
      vertex 4.063138e+00 1.280039e+01 4.000000e+00
      vertex 4.063138e+00 1.280039e+01 3.296695e-15
      vertex 4.188839e+00 1.275324e+01 3.339031e-15
    endloop
  endfacet
  facet normal -5.876693e-01 -8.091013e-01 5.423521e-17
    outer loop
      vertex 3.954513e+00 1.287929e+01 4.000000e+00
      vertex 3.954513e+00 1.287929e+01 3.250765e-15
      vertex 4.063138e+00 1.280039e+01 3.296695e-15
    endloop
  endfacet
  facet normal -7.817676e-01 -6.235698e-01 -3.874728e-17
    outer loop
      vertex 3.870797e+00 1.298425e+01 4.000000e+00
      vertex 3.870797e+00 1.298425e+01 3.204554e-15
      vertex 3.954513e+00 1.287929e+01 3.250765e-15
    endloop
  endfacet
  facet normal -9.195036e-01 -3.930815e-01 -1.289362e-16
    outer loop
      vertex 3.818024e+00 1.310769e+01 4.000000e+00
      vertex 3.818024e+00 1.310769e+01 3.161393e-15
      vertex 3.870797e+00 1.298425e+01 3.204554e-15
    endloop
  endfacet
  facet normal -9.909470e-01 -1.342536e-01 -2.098294e-16
    outer loop
      vertex 3.800000e+00 1.324073e+01 4.000000e+00
      vertex 3.800000e+00 1.324073e+01 3.124393e-15
      vertex 3.818024e+00 1.310769e+01 3.161393e-15
    endloop
  endfacet
  facet normal -9.909470e-01 -1.342536e-01 -2.098294e-16
    outer loop
      vertex 3.818024e+00 1.310769e+01 3.161393e-15
      vertex 3.818024e+00 1.310769e+01 4.000000e+00
      vertex 3.800000e+00 1.324073e+01 4.000000e+00
    endloop
  endfacet
  facet normal -9.195036e-01 -3.930815e-01 -1.289362e-16
    outer loop
      vertex 3.870797e+00 1.298425e+01 3.204554e-15
      vertex 3.870797e+00 1.298425e+01 4.000000e+00
      vertex 3.818024e+00 1.310769e+01 4.000000e+00
    endloop
  endfacet
  facet normal -7.817676e-01 -6.235698e-01 -3.874728e-17
    outer loop
      vertex 3.954513e+00 1.287929e+01 3.250765e-15
      vertex 3.954513e+00 1.287929e+01 4.000000e+00
      vertex 3.870797e+00 1.298425e+01 4.000000e+00
    endloop
  endfacet
  facet normal -5.876693e-01 -8.091013e-01 5.423521e-17
    outer loop
      vertex 4.063138e+00 1.280039e+01 3.296695e-15
      vertex 4.063138e+00 1.280039e+01 4.000000e+00
      vertex 3.954513e+00 1.287929e+01 4.000000e+00
    endloop
  endfacet
  facet normal -3.512022e-01 -9.362996e-01 1.433075e-16
    outer loop
      vertex 4.188839e+00 1.275324e+01 3.339031e-15
      vertex 4.188839e+00 1.275324e+01 4.000000e+00
      vertex 4.063138e+00 1.280039e+01 4.000000e+00
    endloop
  endfacet
  facet normal -8.941489e-02 -9.959944e-01 2.220479e-16
    outer loop
      vertex 4.322555e+00 1.274124e+01 3.374722e-15
      vertex 4.322555e+00 1.274124e+01 4.000000e+00
      vertex 4.188839e+00 1.275324e+01 4.000000e+00
    endloop
  endfacet
  facet normal 4.511039e-02 -9.989820e-01 2.557289e-16
    outer loop
      vertex 5.500000e+00 1.279441e+01 3.650091e-15
      vertex 5.500000e+00 1.279441e+01 4.000000e+00
      vertex 4.322555e+00 1.274124e+01 4.000000e+00
    endloop
  endfacet
  facet normal 4.511039e-02 -9.989820e-01 2.557289e-16
    outer loop
      vertex 4.322555e+00 1.274124e+01 4.000000e+00
      vertex 4.322555e+00 1.274124e+01 3.374722e-15
      vertex 5.500000e+00 1.279441e+01 3.650091e-15
    endloop
  endfacet
  facet normal -9.989820e-01 -4.511039e-02 -2.336312e-16
    outer loop
      vertex 5.500000e+00 1.279441e+01 4.000000e+00
      vertex 5.500000e+00 1.279441e+01 3.650091e-15
      vertex 6.243638e+00 -3.673651e+00 7.865741e-15
    endloop
  endfacet
  facet normal -9.989820e-01 -4.511039e-02 -2.336312e-16
    outer loop
      vertex 6.243638e+00 -3.673651e+00 7.865741e-15
      vertex 6.243638e+00 -3.673651e+00 4.000000e+00
      vertex 5.500000e+00 1.279441e+01 4.000000e+00
    endloop
  endfacet
  facet normal 9.948252e-01 1.016007e-01 2.187769e-16
    outer loop
      vertex -6.057741e+00 -5.493860e+00 4.000000e+00
      vertex -6.057741e+00 -5.493860e+00 5.298595e-15
      vertex -6.243638e+00 -3.673651e+00 4.807240e-15
    endloop
  endfacet
  facet normal 9.227731e-01 3.853438e-01 1.316322e-16
    outer loop
      vertex -5.352686e+00 -7.182238e+00 4.000000e+00
      vertex -5.352686e+00 -7.182238e+00 5.884816e-15
      vertex -6.057741e+00 -5.493860e+00 5.298595e-15
    endloop
  endfacet
  facet normal 7.716378e-01 6.360622e-01 3.320644e-17
    outer loop
      vertex -4.188898e+00 -8.594086e+00 4.000000e+00
      vertex -4.188898e+00 -8.594086e+00 6.515666e-15
      vertex -5.352686e+00 -7.182238e+00 5.884816e-15
    endloop
  endfacet
  facet normal 5.543718e-01 8.322691e-01 -6.806521e-17
    outer loop
      vertex -2.666113e+00 -9.608407e+00 4.000000e+00
      vertex -2.666113e+00 -9.608407e+00 7.137077e-15
      vertex -4.188898e+00 -8.594086e+00 6.515666e-15
    endloop
  endfacet
  facet normal 2.895953e-01 9.571492e-01 -1.635036e-16
    outer loop
      vertex -9.148388e-01 -1.013827e+01 4.000000e+00
      vertex -9.148388e-01 -1.013827e+01 7.695796e-15
      vertex -2.666113e+00 -9.608407e+00 7.137077e-15
    endloop
  endfacet
  facet normal -1.836970e-16 1.000000e+00 -2.449294e-16
    outer loop
      vertex 9.148388e-01 -1.013827e+01 4.000000e+00
      vertex 9.148388e-01 -1.013827e+01 8.143937e-15
      vertex -9.148388e-01 -1.013827e+01 7.695796e-15
    endloop
  endfacet
  facet normal -2.895953e-01 9.571492e-01 -3.053643e-16
    outer loop
      vertex 2.666113e+00 -9.608407e+00 4.000000e+00
      vertex 2.666113e+00 -9.608407e+00 8.443096e-15
      vertex 9.148388e-01 -1.013827e+01 8.143937e-15
    endloop
  endfacet
  facet normal -5.543718e-01 8.322691e-01 -3.396291e-16
    outer loop
      vertex 4.188898e+00 -8.594086e+00 4.000000e+00
      vertex 4.188898e+00 -8.594086e+00 8.567634e-15
      vertex 2.666113e+00 -9.608407e+00 8.443096e-15
    endloop
  endfacet
  facet normal -7.716378e-01 6.360622e-01 -3.447871e-16
    outer loop
      vertex 5.352686e+00 -7.182238e+00 4.000000e+00
      vertex 5.352686e+00 -7.182238e+00 8.506876e-15
      vertex 4.188898e+00 -8.594086e+00 8.567634e-15
    endloop
  endfacet
  facet normal -9.227731e-01 3.853438e-01 -3.203962e-16
    outer loop
      vertex 6.057741e+00 -5.493860e+00 4.000000e+00
      vertex 6.057741e+00 -5.493860e+00 8.266032e-15
      vertex 5.352686e+00 -7.182238e+00 8.506876e-15
    endloop
  endfacet
  facet normal -9.948252e-01 1.016007e-01 -2.685469e-16
    outer loop
      vertex 6.243638e+00 -3.673651e+00 4.000000e+00
      vertex 6.243638e+00 -3.673651e+00 7.865741e-15
      vertex 6.057741e+00 -5.493860e+00 8.266032e-15
    endloop
  endfacet
  facet normal -9.948252e-01 1.016007e-01 -2.685469e-16
    outer loop
      vertex 6.057741e+00 -5.493860e+00 8.266032e-15
      vertex 6.057741e+00 -5.493860e+00 4.000000e+00
      vertex 6.243638e+00 -3.673651e+00 4.000000e+00
    endloop
  endfacet
  facet normal -9.227731e-01 3.853438e-01 -3.203962e-16
    outer loop
      vertex 5.352686e+00 -7.182238e+00 8.506876e-15
      vertex 5.352686e+00 -7.182238e+00 4.000000e+00
      vertex 6.057741e+00 -5.493860e+00 4.000000e+00
    endloop
  endfacet
  facet normal -7.716378e-01 6.360622e-01 -3.447871e-16
    outer loop
      vertex 4.188898e+00 -8.594086e+00 8.567634e-15
      vertex 4.188898e+00 -8.594086e+00 4.000000e+00
      vertex 5.352686e+00 -7.182238e+00 4.000000e+00
    endloop
  endfacet
  facet normal -5.543718e-01 8.322691e-01 -3.396291e-16
    outer loop
      vertex 2.666113e+00 -9.608407e+00 8.443096e-15
      vertex 2.666113e+00 -9.608407e+00 4.000000e+00
      vertex 4.188898e+00 -8.594086e+00 4.000000e+00
    endloop
  endfacet
  facet normal -2.895953e-01 9.571492e-01 -3.053643e-16
    outer loop
      vertex 9.148388e-01 -1.013827e+01 8.143937e-15
      vertex 9.148388e-01 -1.013827e+01 4.000000e+00
      vertex 2.666113e+00 -9.608407e+00 4.000000e+00
    endloop
  endfacet
  facet normal -1.836970e-16 1.000000e+00 -2.449294e-16
    outer loop
      vertex -9.148388e-01 -1.013827e+01 7.695796e-15
      vertex -9.148388e-01 -1.013827e+01 4.000000e+00
      vertex 9.148388e-01 -1.013827e+01 4.000000e+00
    endloop
  endfacet
  facet normal 2.895953e-01 9.571492e-01 -1.635036e-16
    outer loop
      vertex -2.666113e+00 -9.608407e+00 7.137077e-15
      vertex -2.666113e+00 -9.608407e+00 4.000000e+00
      vertex -9.148388e-01 -1.013827e+01 4.000000e+00
    endloop
  endfacet
  facet normal 5.543718e-01 8.322691e-01 -6.806521e-17
    outer loop
      vertex -4.188898e+00 -8.594086e+00 6.515666e-15
      vertex -4.188898e+00 -8.594086e+00 4.000000e+00
      vertex -2.666113e+00 -9.608407e+00 4.000000e+00
    endloop
  endfacet
  facet normal 7.716378e-01 6.360622e-01 3.320644e-17
    outer loop
      vertex -5.352686e+00 -7.182238e+00 5.884816e-15
      vertex -5.352686e+00 -7.182238e+00 4.000000e+00
      vertex -4.188898e+00 -8.594086e+00 4.000000e+00
    endloop
  endfacet
  facet normal 9.227731e-01 3.853438e-01 1.316322e-16
    outer loop
      vertex -6.057741e+00 -5.493860e+00 5.298595e-15
      vertex -6.057741e+00 -5.493860e+00 4.000000e+00
      vertex -5.352686e+00 -7.182238e+00 4.000000e+00
    endloop
  endfacet
  facet normal 9.948252e-01 1.016007e-01 2.187769e-16
    outer loop
      vertex -6.243638e+00 -3.673651e+00 4.807240e-15
      vertex -6.243638e+00 -3.673651e+00 4.000000e+00
      vertex -6.057741e+00 -5.493860e+00 4.000000e+00
    endloop
  endfacet
  facet normal -2.449294e-16 2.449294e-16 1.000000e+00
    outer loop
      vertex -8.254468e+00 -1.055039e+01 4.000000e+00
      vertex -4.188898e+00 -8.594086e+00 4.000000e+00
      vertex -5.352686e+00 -7.182238e+00 4.000000e+00
    endloop
  endfacet
  facet normal -2.449294e-16 2.449294e-16 1.000000e+00
    outer loop
      vertex -5.352686e+00 -7.182238e+00 4.000000e+00
      vertex -9.369303e+00 -8.400753e+00 4.000000e+00
      vertex -8.254468e+00 -1.055039e+01 4.000000e+00
    endloop
  endfacet
  facet normal -2.449294e-16 2.449294e-16 1.000000e+00
    outer loop
      vertex -6.655608e+00 -1.236903e+01 4.000000e+00
      vertex -4.666477e+00 -1.375002e+01 4.000000e+00
      vertex -2.666113e+00 -9.608407e+00 4.000000e+00
    endloop
  endfacet
  facet normal -2.449294e-16 2.449294e-16 1.000000e+00
    outer loop
      vertex 1.314306e-15 -1.490559e+01 4.000000e+00
      vertex 2.403713e+00 -1.461240e+01 4.000000e+00
      vertex 9.148388e-01 -1.013827e+01 4.000000e+00
    endloop
  endfacet
  facet normal -2.449294e-16 2.449294e-16 1.000000e+00
    outer loop
      vertex -2.666113e+00 -9.608407e+00 4.000000e+00
      vertex -4.188898e+00 -8.594086e+00 4.000000e+00
      vertex -6.655608e+00 -1.236903e+01 4.000000e+00
    endloop
  endfacet
  facet normal -2.449294e-16 2.449294e-16 1.000000e+00
    outer loop
      vertex -2.403713e+00 -1.461240e+01 4.000000e+00
      vertex -9.148388e-01 -1.013827e+01 4.000000e+00
      vertex -2.666113e+00 -9.608407e+00 4.000000e+00
    endloop
  endfacet
  facet normal -2.449294e-16 2.449294e-16 1.000000e+00
    outer loop
      vertex -9.148388e-01 -1.013827e+01 4.000000e+00
      vertex -2.403713e+00 -1.461240e+01 4.000000e+00
      vertex 1.314306e-15 -1.490559e+01 4.000000e+00
    endloop
  endfacet
  facet normal -2.449294e-16 2.449294e-16 1.000000e+00
    outer loop
      vertex 2.403713e+00 -1.461240e+01 4.000000e+00
      vertex 4.666477e+00 -1.375002e+01 4.000000e+00
      vertex 2.666113e+00 -9.608407e+00 4.000000e+00
    endloop
  endfacet
  facet normal -2.449294e-16 2.449294e-16 1.000000e+00
    outer loop
      vertex 5.500000e+00 1.279441e+01 4.000000e+00
      vertex 7.580588e+00 1.447043e+01 4.000000e+00
      vertex 7.539564e+00 1.461401e+01 4.000000e+00
    endloop
  endfacet
  facet normal -2.449294e-16 2.449294e-16 1.000000e+00
    outer loop
      vertex -5.500000e+00 1.279441e+01 4.000000e+00
      vertex -7.457971e+00 1.473906e+01 4.000000e+00
      vertex -7.539564e+00 1.461401e+01 4.000000e+00
    endloop
  endfacet
  facet normal -2.449294e-16 2.449294e-16 1.000000e+00
    outer loop
      vertex -2.666113e+00 -9.608407e+00 4.000000e+00
      vertex -4.666477e+00 -1.375002e+01 4.000000e+00
      vertex -2.403713e+00 -1.461240e+01 4.000000e+00
    endloop
  endfacet
  facet normal -2.449294e-16 2.449294e-16 1.000000e+00
    outer loop
      vertex 2.666113e+00 -9.608407e+00 4.000000e+00
      vertex 9.148388e-01 -1.013827e+01 4.000000e+00
      vertex 2.403713e+00 -1.461240e+01 4.000000e+00
    endloop
  endfacet
  facet normal -2.449294e-16 2.449294e-16 1.000000e+00
    outer loop
      vertex 7.539564e+00 1.461401e+01 4.000000e+00
      vertex 7.457971e+00 1.473906e+01 4.000000e+00
      vertex 5.500000e+00 1.279441e+01 4.000000e+00
    endloop
  endfacet
  facet normal -2.449294e-16 2.449294e-16 1.000000e+00
    outer loop
      vertex 9.917626e+00 -3.624701e+00 4.000000e+00
      vertex 7.580588e+00 1.447043e+01 4.000000e+00
      vertex 5.500000e+00 1.279441e+01 4.000000e+00
    endloop
  endfacet
  facet normal -2.449294e-16 2.449294e-16 1.000000e+00
    outer loop
      vertex -9.917626e+00 -3.624701e+00 4.000000e+00
      vertex -6.243638e+00 -3.673651e+00 4.000000e+00
      vertex -5.500000e+00 1.279441e+01 4.000000e+00
    endloop
  endfacet
  facet normal -2.449294e-16 2.449294e-16 1.000000e+00
    outer loop
      vertex -5.500000e+00 1.279441e+01 4.000000e+00
      vertex -7.343088e+00 1.483445e+01 4.000000e+00
      vertex -7.457971e+00 1.473906e+01 4.000000e+00
    endloop
  endfacet
  facet normal -2.449294e-16 2.449294e-16 1.000000e+00
    outer loop
      vertex 9.148388e-01 -1.013827e+01 4.000000e+00
      vertex -9.148388e-01 -1.013827e+01 4.000000e+00
      vertex 1.314306e-15 -1.490559e+01 4.000000e+00
    endloop
  endfacet
  facet normal -2.449294e-16 2.449294e-16 1.000000e+00
    outer loop
      vertex 6.655608e+00 -1.236903e+01 4.000000e+00
      vertex 4.188898e+00 -8.594086e+00 4.000000e+00
      vertex 2.666113e+00 -9.608407e+00 4.000000e+00
    endloop
  endfacet
  facet normal -2.449294e-16 2.449294e-16 1.000000e+00
    outer loop
      vertex 8.254468e+00 -1.055039e+01 4.000000e+00
      vertex 9.369303e+00 -8.400753e+00 4.000000e+00
      vertex 5.352686e+00 -7.182238e+00 4.000000e+00
    endloop
  endfacet
  facet normal -2.449294e-16 2.449294e-16 1.000000e+00
    outer loop
      vertex 9.934741e+00 -6.046168e+00 4.000000e+00
      vertex 9.917626e+00 -3.624701e+00 4.000000e+00
      vertex 6.243638e+00 -3.673651e+00 4.000000e+00
    endloop
  endfacet
  facet normal -2.449294e-16 2.449294e-16 1.000000e+00
    outer loop
      vertex 5.500000e+00 1.279441e+01 4.000000e+00
      vertex 6.243638e+00 -3.673651e+00 4.000000e+00
      vertex 9.917626e+00 -3.624701e+00 4.000000e+00
    endloop
  endfacet
  facet normal -2.449294e-16 2.449294e-16 1.000000e+00
    outer loop
      vertex 4.322555e+00 1.274124e+01 4.000000e+00
      vertex 3.818024e+00 1.310769e+01 4.000000e+00
      vertex 3.870797e+00 1.298425e+01 4.000000e+00
    endloop
  endfacet
  facet normal -2.449294e-16 2.449294e-16 1.000000e+00
    outer loop
      vertex -4.063138e+00 1.280039e+01 4.000000e+00
      vertex -3.870797e+00 1.298425e+01 4.000000e+00
      vertex -3.818024e+00 1.310769e+01 4.000000e+00
    endloop
  endfacet
  facet normal -2.449294e-16 2.449294e-16 1.000000e+00
    outer loop
      vertex -7.539564e+00 1.461401e+01 4.000000e+00
      vertex -7.580588e+00 1.447043e+01 4.000000e+00
      vertex -5.500000e+00 1.279441e+01 4.000000e+00
    endloop
  endfacet
  facet normal -2.449294e-16 2.449294e-16 1.000000e+00
    outer loop
      vertex -9.934741e+00 -6.046168e+00 4.000000e+00
      vertex -6.057741e+00 -5.493860e+00 4.000000e+00
      vertex -6.243638e+00 -3.673651e+00 4.000000e+00
    endloop
  endfacet
  facet normal -2.449294e-16 2.449294e-16 1.000000e+00
    outer loop
      vertex 2.666113e+00 -9.608407e+00 4.000000e+00
      vertex 4.666477e+00 -1.375002e+01 4.000000e+00
      vertex 6.655608e+00 -1.236903e+01 4.000000e+00
    endloop
  endfacet
  facet normal -2.449294e-16 2.449294e-16 1.000000e+00
    outer loop
      vertex 4.188898e+00 -8.594086e+00 4.000000e+00
      vertex 6.655608e+00 -1.236903e+01 4.000000e+00
      vertex 8.254468e+00 -1.055039e+01 4.000000e+00
    endloop
  endfacet
  facet normal -2.449294e-16 2.449294e-16 1.000000e+00
    outer loop
      vertex 9.369303e+00 -8.400753e+00 4.000000e+00
      vertex 9.934741e+00 -6.046168e+00 4.000000e+00
      vertex 6.057741e+00 -5.493860e+00 4.000000e+00
    endloop
  endfacet
  facet normal -2.449294e-16 2.449294e-16 1.000000e+00
    outer loop
      vertex 7.457971e+00 1.473906e+01 4.000000e+00
      vertex 7.343088e+00 1.483445e+01 4.000000e+00
      vertex 5.500000e+00 1.279441e+01 4.000000e+00
    endloop
  endfacet
  facet normal -2.449294e-16 2.449294e-16 1.000000e+00
    outer loop
      vertex 5.500000e+00 1.279441e+01 4.000000e+00
      vertex 7.205162e+00 1.489166e+01 4.000000e+00
      vertex 7.056491e+00 1.490559e+01 4.000000e+00
    endloop
  endfacet
  facet normal -2.449294e-16 2.449294e-16 1.000000e+00
    outer loop
      vertex 3.954513e+00 1.287929e+01 4.000000e+00
      vertex 4.063138e+00 1.280039e+01 4.000000e+00
      vertex 4.188839e+00 1.275324e+01 4.000000e+00
    endloop
  endfacet
  facet normal -2.449294e-16 2.449294e-16 1.000000e+00
    outer loop
      vertex 4.322555e+00 1.274124e+01 4.000000e+00
      vertex 3.800000e+00 1.324073e+01 4.000000e+00
      vertex 3.818024e+00 1.310769e+01 4.000000e+00
    endloop
  endfacet
  facet normal -2.449294e-16 2.449294e-16 1.000000e+00
    outer loop
      vertex -4.063138e+00 1.280039e+01 4.000000e+00
      vertex -3.954513e+00 1.287929e+01 4.000000e+00
      vertex -3.870797e+00 1.298425e+01 4.000000e+00
    endloop
  endfacet
  facet normal -2.449294e-16 2.449294e-16 1.000000e+00
    outer loop
      vertex -3.800000e+00 1.324073e+01 4.000000e+00
      vertex -4.322555e+00 1.274124e+01 4.000000e+00
      vertex -4.188839e+00 1.275324e+01 4.000000e+00
    endloop
  endfacet
  facet normal -2.449294e-16 2.449294e-16 1.000000e+00
    outer loop
      vertex -5.500000e+00 1.279441e+01 4.000000e+00
      vertex -6.910338e+00 1.487500e+01 4.000000e+00
      vertex -7.056491e+00 1.490559e+01 4.000000e+00
    endloop
  endfacet
  facet normal -2.449294e-16 2.449294e-16 1.000000e+00
    outer loop
      vertex -6.243638e+00 -3.673651e+00 4.000000e+00
      vertex -9.917626e+00 -3.624701e+00 4.000000e+00
      vertex -9.934741e+00 -6.046168e+00 4.000000e+00
    endloop
  endfacet
  facet normal -2.449294e-16 2.449294e-16 1.000000e+00
    outer loop
      vertex -9.369303e+00 -8.400753e+00 4.000000e+00
      vertex -5.352686e+00 -7.182238e+00 4.000000e+00
      vertex -6.057741e+00 -5.493860e+00 4.000000e+00
    endloop
  endfacet
  facet normal -2.449294e-16 2.449294e-16 1.000000e+00
    outer loop
      vertex 5.352686e+00 -7.182238e+00 4.000000e+00
      vertex 4.188898e+00 -8.594086e+00 4.000000e+00
      vertex 8.254468e+00 -1.055039e+01 4.000000e+00
    endloop
  endfacet
  facet normal -2.449294e-16 2.449294e-16 1.000000e+00
    outer loop
      vertex 6.243638e+00 -3.673651e+00 4.000000e+00
      vertex 6.057741e+00 -5.493860e+00 4.000000e+00
      vertex 9.934741e+00 -6.046168e+00 4.000000e+00
    endloop
  endfacet
  facet normal -2.449294e-16 2.449294e-16 1.000000e+00
    outer loop
      vertex 3.800000e+00 1.371764e+01 4.000000e+00
      vertex 4.322555e+00 1.274124e+01 4.000000e+00
      vertex 5.500000e+00 1.279441e+01 4.000000e+00
    endloop
  endfacet
  facet normal -2.449294e-16 2.449294e-16 1.000000e+00
    outer loop
      vertex 5.500000e+00 1.279441e+01 4.000000e+00
      vertex 7.343088e+00 1.483445e+01 4.000000e+00
      vertex 7.205162e+00 1.489166e+01 4.000000e+00
    endloop
  endfacet
  facet normal -2.449294e-16 2.449294e-16 1.000000e+00
    outer loop
      vertex 3.870797e+00 1.298425e+01 4.000000e+00
      vertex 3.954513e+00 1.287929e+01 4.000000e+00
      vertex 4.322555e+00 1.274124e+01 4.000000e+00
    endloop
  endfacet
  facet normal -2.449294e-16 2.449294e-16 1.000000e+00
    outer loop
      vertex -4.188839e+00 1.275324e+01 4.000000e+00
      vertex -4.063138e+00 1.280039e+01 4.000000e+00
      vertex -3.800000e+00 1.324073e+01 4.000000e+00
    endloop
  endfacet
  facet normal -2.449294e-16 2.449294e-16 1.000000e+00
    outer loop
      vertex -7.056491e+00 1.490559e+01 4.000000e+00
      vertex -7.205162e+00 1.489166e+01 4.000000e+00
      vertex -5.500000e+00 1.279441e+01 4.000000e+00
    endloop
  endfacet
  facet normal -2.449294e-16 2.449294e-16 1.000000e+00
    outer loop
      vertex -3.800000e+00 1.371764e+01 4.000000e+00
      vertex -6.910338e+00 1.487500e+01 4.000000e+00
      vertex -5.500000e+00 1.279441e+01 4.000000e+00
    endloop
  endfacet
  facet normal -2.449294e-16 2.449294e-16 1.000000e+00
    outer loop
      vertex -6.057741e+00 -5.493860e+00 4.000000e+00
      vertex -9.934741e+00 -6.046168e+00 4.000000e+00
      vertex -9.369303e+00 -8.400753e+00 4.000000e+00
    endloop
  endfacet
  facet normal -2.449294e-16 2.449294e-16 1.000000e+00
    outer loop
      vertex 6.057741e+00 -5.493860e+00 4.000000e+00
      vertex 5.352686e+00 -7.182238e+00 4.000000e+00
      vertex 9.369303e+00 -8.400753e+00 4.000000e+00
    endloop
  endfacet
  facet normal -2.449294e-16 2.449294e-16 1.000000e+00
    outer loop
      vertex 7.056491e+00 1.490559e+01 4.000000e+00
      vertex 6.910338e+00 1.487500e+01 4.000000e+00
      vertex 5.500000e+00 1.279441e+01 4.000000e+00
    endloop
  endfacet
  facet normal -2.449294e-16 2.449294e-16 1.000000e+00
    outer loop
      vertex 4.322555e+00 1.274124e+01 4.000000e+00
      vertex 3.800000e+00 1.371764e+01 4.000000e+00
      vertex 3.800000e+00 1.324073e+01 4.000000e+00
    endloop
  endfacet
  facet normal -2.449294e-16 2.449294e-16 1.000000e+00
    outer loop
      vertex -3.818024e+00 1.310769e+01 4.000000e+00
      vertex -3.800000e+00 1.324073e+01 4.000000e+00
      vertex -4.063138e+00 1.280039e+01 4.000000e+00
    endloop
  endfacet
  facet normal -2.449294e-16 2.449294e-16 1.000000e+00
    outer loop
      vertex -5.500000e+00 1.279441e+01 4.000000e+00
      vertex -4.322555e+00 1.274124e+01 4.000000e+00
      vertex -3.800000e+00 1.371764e+01 4.000000e+00
    endloop
  endfacet
  facet normal -2.449294e-16 2.449294e-16 1.000000e+00
    outer loop
      vertex -8.254468e+00 -1.055039e+01 4.000000e+00
      vertex -6.655608e+00 -1.236903e+01 4.000000e+00
      vertex -4.188898e+00 -8.594086e+00 4.000000e+00
    endloop
  endfacet
  facet normal -2.449294e-16 2.449294e-16 1.000000e+00
    outer loop
      vertex 4.188839e+00 1.275324e+01 4.000000e+00
      vertex 4.322555e+00 1.274124e+01 4.000000e+00
      vertex 3.954513e+00 1.287929e+01 4.000000e+00
    endloop
  endfacet
  facet normal -2.449294e-16 2.449294e-16 1.000000e+00
    outer loop
      vertex -7.205162e+00 1.489166e+01 4.000000e+00
      vertex -7.343088e+00 1.483445e+01 4.000000e+00
      vertex -5.500000e+00 1.279441e+01 4.000000e+00
    endloop
  endfacet
  facet normal -2.449294e-16 2.449294e-16 1.000000e+00
    outer loop
      vertex 5.500000e+00 1.279441e+01 4.000000e+00
      vertex 6.910338e+00 1.487500e+01 4.000000e+00
      vertex 3.800000e+00 1.371764e+01 4.000000e+00
    endloop
  endfacet
  facet normal -2.449294e-16 2.449294e-16 1.000000e+00
    outer loop
      vertex -5.500000e+00 1.279441e+01 4.000000e+00
      vertex -7.580588e+00 1.447043e+01 4.000000e+00
      vertex -9.917626e+00 -3.624701e+00 4.000000e+00
    endloop
  endfacet
  facet normal -2.449294e-16 2.449294e-16 1.000000e+00
    outer loop
      vertex -3.800000e+00 1.324073e+01 4.000000e+00
      vertex -3.800000e+00 1.371764e+01 4.000000e+00
      vertex -4.322555e+00 1.274124e+01 4.000000e+00
    endloop
  endfacet
  facet normal 2.449294e-16 -2.449294e-16 -1.000000e+00
    outer loop
      vertex 8.254468e+00 -1.055039e+01 1.004257e-14
      vertex 4.188898e+00 -8.594086e+00 8.567634e-15
      vertex 5.352686e+00 -7.182238e+00 8.506876e-15
    endloop
  endfacet
  facet normal 2.449294e-16 -2.449294e-16 -1.000000e+00
    outer loop
      vertex 2.294023e-15 -1.490559e+01 9.087522e-15
      vertex -9.148388e-01 -1.013827e+01 7.695796e-15
      vertex 9.148388e-01 -1.013827e+01 8.143937e-15
    endloop
  endfacet
  facet normal 2.449294e-16 -2.449294e-16 -1.000000e+00
    outer loop
      vertex 5.500000e+00 1.279441e+01 3.650091e-15
      vertex 7.343088e+00 1.483445e+01 3.601851e-15
      vertex 7.457971e+00 1.473906e+01 3.653352e-15
    endloop
  endfacet
  facet normal 2.449294e-16 -2.449294e-16 -1.000000e+00
    outer loop
      vertex 5.352686e+00 -7.182238e+00 8.506876e-15
      vertex 9.369303e+00 -8.400753e+00 9.789114e-15
      vertex 8.254468e+00 -1.055039e+01 1.004257e-14
    endloop
  endfacet
  facet normal 2.449294e-16 -2.449294e-16 -1.000000e+00
    outer loop
      vertex 6.655608e+00 -1.236903e+01 1.009640e-14
      vertex 4.666477e+00 -1.375002e+01 9.947447e-15
      vertex 2.666113e+00 -9.608407e+00 8.443096e-15
    endloop
  endfacet
  facet normal 2.449294e-16 -2.449294e-16 -1.000000e+00
    outer loop
      vertex 2.403713e+00 -1.461240e+01 9.604451e-15
      vertex 9.148388e-01 -1.013827e+01 8.143937e-15
      vertex 2.666113e+00 -9.608407e+00 8.443096e-15
    endloop
  endfacet
  facet normal 2.449294e-16 -2.449294e-16 -1.000000e+00
    outer loop
      vertex 9.148388e-01 -1.013827e+01 8.143937e-15
      vertex 2.403713e+00 -1.461240e+01 9.604451e-15
      vertex 2.294023e-15 -1.490559e+01 9.087522e-15
    endloop
  endfacet
  facet normal 2.449294e-16 -2.449294e-16 -1.000000e+00
    outer loop
      vertex 9.917626e+00 -3.624701e+00 8.753619e-15
      vertex 6.243638e+00 -3.673651e+00 7.865741e-15
      vertex 5.500000e+00 1.279441e+01 3.650091e-15
    endloop
  endfacet
  facet normal 2.449294e-16 -2.449294e-16 -1.000000e+00
    outer loop
      vertex 7.457971e+00 1.473906e+01 3.653352e-15
      vertex 7.539564e+00 1.461401e+01 3.703967e-15
      vertex 5.500000e+00 1.279441e+01 3.650091e-15
    endloop
  endfacet
  facet normal 2.449294e-16 -2.449294e-16 -1.000000e+00
    outer loop
      vertex 2.666113e+00 -9.608407e+00 8.443096e-15
      vertex 4.188898e+00 -8.594086e+00 8.567634e-15
      vertex 6.655608e+00 -1.236903e+01 1.009640e-14
    endloop
  endfacet
  facet normal 2.449294e-16 -2.449294e-16 -1.000000e+00
    outer loop
      vertex 2.294023e-15 -1.490559e+01 9.087522e-15
      vertex -2.403713e+00 -1.461240e+01 8.426972e-15
      vertex -9.148388e-01 -1.013827e+01 7.695796e-15
    endloop
  endfacet
  facet normal 2.449294e-16 -2.449294e-16 -1.000000e+00
    outer loop
      vertex -8.254468e+00 -1.055039e+01 5.999044e-15
      vertex -9.369303e+00 -8.400753e+00 5.199479e-15
      vertex -5.352686e+00 -7.182238e+00 5.884816e-15
    endloop
  endfacet
  facet normal 2.449294e-16 -2.449294e-16 -1.000000e+00
    outer loop
      vertex -5.500000e+00 1.279441e+01 9.558676e-16
      vertex -7.580588e+00 1.447043e+01 3.576352e-17
      vertex -7.539564e+00 1.461401e+01 1.064577e-17
    endloop
  endfacet
  facet normal 2.449294e-16 -2.449294e-16 -1.000000e+00
    outer loop
      vertex 4.322555e+00 1.274124e+01 3.374722e-15
      vertex 3.954513e+00 1.287929e+01 3.250765e-15
      vertex 3.870797e+00 1.298425e+01 3.204554e-15
    endloop
  endfacet
  facet normal 2.449294e-16 -2.449294e-16 -1.000000e+00
    outer loop
      vertex 7.539564e+00 1.461401e+01 3.703967e-15
      vertex 7.580588e+00 1.447043e+01 3.749181e-15
      vertex 5.500000e+00 1.279441e+01 3.650091e-15
    endloop
  endfacet
  facet normal 2.449294e-16 -2.449294e-16 -1.000000e+00
    outer loop
      vertex 9.934741e+00 -6.046168e+00 9.350899e-15
      vertex 6.057741e+00 -5.493860e+00 8.266032e-15
      vertex 6.243638e+00 -3.673651e+00 7.865741e-15
    endloop
  endfacet
  facet normal 2.449294e-16 -2.449294e-16 -1.000000e+00
    outer loop
      vertex 2.666113e+00 -9.608407e+00 8.443096e-15
      vertex 4.666477e+00 -1.375002e+01 9.947447e-15
      vertex 2.403713e+00 -1.461240e+01 9.604451e-15
    endloop
  endfacet
  facet normal 2.449294e-16 -2.449294e-16 -1.000000e+00
    outer loop
      vertex -2.403713e+00 -1.461240e+01 8.426972e-15
      vertex -4.666477e+00 -1.375002e+01 7.661533e-15
      vertex -2.666113e+00 -9.608407e+00 7.137077e-15
    endloop
  endfacet
  facet normal 2.449294e-16 -2.449294e-16 -1.000000e+00
    outer loop
      vertex -6.655608e+00 -1.236903e+01 6.836090e-15
      vertex -4.188898e+00 -8.594086e+00 6.515666e-15
      vertex -2.666113e+00 -9.608407e+00 7.137077e-15
    endloop
  endfacet
  facet normal 2.449294e-16 -2.449294e-16 -1.000000e+00
    outer loop
      vertex -4.188898e+00 -8.594086e+00 6.515666e-15
      vertex -6.655608e+00 -1.236903e+01 6.836090e-15
      vertex -8.254468e+00 -1.055039e+01 5.999044e-15
    endloop
  endfacet
  facet normal 2.449294e-16 -2.449294e-16 -1.000000e+00
    outer loop
      vertex -7.539564e+00 1.461401e+01 1.064577e-17
      vertex -7.457971e+00 1.473906e+01 0.000000e+00
      vertex -5.500000e+00 1.279441e+01 9.558676e-16
    endloop
  endfacet
  facet normal 2.449294e-16 -2.449294e-16 -1.000000e+00
    outer loop
      vertex -9.917626e+00 -3.624701e+00 3.895383e-15
      vertex -7.580588e+00 1.447043e+01 3.576352e-17
      vertex -5.500000e+00 1.279441e+01 9.558676e-16
    endloop
  endfacet
  facet normal 2.449294e-16 -2.449294e-16 -1.000000e+00
    outer loop
      vertex 3.870797e+00 1.298425e+01 3.204554e-15
      vertex 3.818024e+00 1.310769e+01 3.161393e-15
      vertex 4.322555e+00 1.274124e+01 3.374722e-15
    endloop
  endfacet
  facet normal 2.449294e-16 -2.449294e-16 -1.000000e+00
    outer loop
      vertex 3.954513e+00 1.287929e+01 3.250765e-15
      vertex 4.322555e+00 1.274124e+01 3.374722e-15
      vertex 4.188839e+00 1.275324e+01 3.339031e-15
    endloop
  endfacet
  facet normal 2.449294e-16 -2.449294e-16 -1.000000e+00
    outer loop
      vertex 5.500000e+00 1.279441e+01 3.650091e-15
      vertex 6.910338e+00 1.487500e+01 3.485927e-15
      vertex 7.056491e+00 1.490559e+01 3.514231e-15
    endloop
  endfacet
  facet normal 2.449294e-16 -2.449294e-16 -1.000000e+00
    outer loop
      vertex 6.243638e+00 -3.673651e+00 7.865741e-15
      vertex 9.917626e+00 -3.624701e+00 8.753619e-15
      vertex 9.934741e+00 -6.046168e+00 9.350899e-15
    endloop
  endfacet
  facet normal 2.449294e-16 -2.449294e-16 -1.000000e+00
    outer loop
      vertex 9.369303e+00 -8.400753e+00 9.789114e-15
      vertex 5.352686e+00 -7.182238e+00 8.506876e-15
      vertex 6.057741e+00 -5.493860e+00 8.266032e-15
    endloop
  endfacet
  facet normal 2.449294e-16 -2.449294e-16 -1.000000e+00
    outer loop
      vertex -2.666113e+00 -9.608407e+00 7.137077e-15
      vertex -9.148388e-01 -1.013827e+01 7.695796e-15
      vertex -2.403713e+00 -1.461240e+01 8.426972e-15
    endloop
  endfacet
  facet normal 2.449294e-16 -2.449294e-16 -1.000000e+00
    outer loop
      vertex -5.352686e+00 -7.182238e+00 5.884816e-15
      vertex -4.188898e+00 -8.594086e+00 6.515666e-15
      vertex -8.254468e+00 -1.055039e+01 5.999044e-15
    endloop
  endfacet
  facet normal 2.449294e-16 -2.449294e-16 -1.000000e+00
    outer loop
      vertex -9.934741e+00 -6.046168e+00 4.484280e-15
      vertex -9.917626e+00 -3.624701e+00 3.895383e-15
      vertex -6.243638e+00 -3.673651e+00 4.807240e-15
    endloop
  endfacet
  facet normal 2.449294e-16 -2.449294e-16 -1.000000e+00
    outer loop
      vertex -5.500000e+00 1.279441e+01 9.558676e-16
      vertex -6.243638e+00 -3.673651e+00 4.807240e-15
      vertex -9.917626e+00 -3.624701e+00 3.895383e-15
    endloop
  endfacet
  facet normal 2.449294e-16 -2.449294e-16 -1.000000e+00
    outer loop
      vertex -4.063138e+00 1.280039e+01 1.306331e-15
      vertex -3.800000e+00 1.324073e+01 1.262930e-15
      vertex -3.818024e+00 1.310769e+01 1.291100e-15
    endloop
  endfacet
  facet normal 2.449294e-16 -2.449294e-16 -1.000000e+00
    outer loop
      vertex 4.188839e+00 1.275324e+01 3.339031e-15
      vertex 4.063138e+00 1.280039e+01 3.296695e-15
      vertex 3.954513e+00 1.287929e+01 3.250765e-15
    endloop
  endfacet
  facet normal 2.449294e-16 -2.449294e-16 -1.000000e+00
    outer loop
      vertex 7.056491e+00 1.490559e+01 3.514231e-15
      vertex 7.205162e+00 1.489166e+01 3.554056e-15
      vertex 5.500000e+00 1.279441e+01 3.650091e-15
    endloop
  endfacet
  facet normal 2.449294e-16 -2.449294e-16 -1.000000e+00
    outer loop
      vertex 3.800000e+00 1.371764e+01 3.007583e-15
      vertex 6.910338e+00 1.487500e+01 3.485927e-15
      vertex 5.500000e+00 1.279441e+01 3.650091e-15
    endloop
  endfacet
  facet normal 2.449294e-16 -2.449294e-16 -1.000000e+00
    outer loop
      vertex 6.057741e+00 -5.493860e+00 8.266032e-15
      vertex 9.934741e+00 -6.046168e+00 9.350899e-15
      vertex 9.369303e+00 -8.400753e+00 9.789114e-15
    endloop
  endfacet
  facet normal 2.449294e-16 -2.449294e-16 -1.000000e+00
    outer loop
      vertex -2.666113e+00 -9.608407e+00 7.137077e-15
      vertex -4.666477e+00 -1.375002e+01 7.661533e-15
      vertex -6.655608e+00 -1.236903e+01 6.836090e-15
    endloop
  endfacet
  facet normal 2.449294e-16 -2.449294e-16 -1.000000e+00
    outer loop
      vertex -9.369303e+00 -8.400753e+00 5.199479e-15
      vertex -9.934741e+00 -6.046168e+00 4.484280e-15
      vertex -6.057741e+00 -5.493860e+00 5.298595e-15
    endloop
  endfacet
  facet normal 2.449294e-16 -2.449294e-16 -1.000000e+00
    outer loop
      vertex -7.457971e+00 1.473906e+01 0.000000e+00
      vertex -7.343088e+00 1.483445e+01 4.775251e-18
      vertex -5.500000e+00 1.279441e+01 9.558676e-16
    endloop
  endfacet
  facet normal 2.449294e-16 -2.449294e-16 -1.000000e+00
    outer loop
      vertex -3.800000e+00 1.324073e+01 1.262930e-15
      vertex -4.063138e+00 1.280039e+01 1.306331e-15
      vertex -4.188839e+00 1.275324e+01 1.287092e-15
    endloop
  endfacet
  facet normal 2.449294e-16 -2.449294e-16 -1.000000e+00
    outer loop
      vertex -3.818024e+00 1.310769e+01 1.291100e-15
      vertex -3.870797e+00 1.298425e+01 1.308411e-15
      vertex -4.063138e+00 1.280039e+01 1.306331e-15
    endloop
  endfacet
  facet normal 2.449294e-16 -2.449294e-16 -1.000000e+00
    outer loop
      vertex -5.500000e+00 1.279441e+01 9.558676e-16
      vertex -7.205162e+00 1.489166e+01 2.454488e-17
      vertex -7.056491e+00 1.490559e+01 5.754687e-17
    endloop
  endfacet
  facet normal 2.449294e-16 -2.449294e-16 -1.000000e+00
    outer loop
      vertex 3.818024e+00 1.310769e+01 3.161393e-15
      vertex 3.800000e+00 1.324073e+01 3.124393e-15
      vertex 4.322555e+00 1.274124e+01 3.374722e-15
    endloop
  endfacet
  facet normal 2.449294e-16 -2.449294e-16 -1.000000e+00
    outer loop
      vertex 5.500000e+00 1.279441e+01 3.650091e-15
      vertex 4.322555e+00 1.274124e+01 3.374722e-15
      vertex 3.800000e+00 1.371764e+01 3.007583e-15
    endloop
  endfacet
  facet normal 2.449294e-16 -2.449294e-16 -1.000000e+00
    outer loop
      vertex 8.254468e+00 -1.055039e+01 1.004257e-14
      vertex 6.655608e+00 -1.236903e+01 1.009640e-14
      vertex 4.188898e+00 -8.594086e+00 8.567634e-15
    endloop
  endfacet
  facet normal 2.449294e-16 -2.449294e-16 -1.000000e+00
    outer loop
      vertex -6.243638e+00 -3.673651e+00 4.807240e-15
      vertex -6.057741e+00 -5.493860e+00 5.298595e-15
      vertex -9.934741e+00 -6.046168e+00 4.484280e-15
    endloop
  endfacet
  facet normal 2.449294e-16 -2.449294e-16 -1.000000e+00
    outer loop
      vertex -3.870797e+00 1.298425e+01 1.308411e-15
      vertex -3.954513e+00 1.287929e+01 1.313612e-15
      vertex -4.063138e+00 1.280039e+01 1.306331e-15
    endloop
  endfacet
  facet normal 2.449294e-16 -2.449294e-16 -1.000000e+00
    outer loop
      vertex -5.500000e+00 1.279441e+01 9.558676e-16
      vertex -6.910338e+00 1.487500e+01 1.008375e-16
      vertex -3.800000e+00 1.371764e+01 1.146120e-15
    endloop
  endfacet
  facet normal 2.449294e-16 -2.449294e-16 -1.000000e+00
    outer loop
      vertex -5.500000e+00 1.279441e+01 9.558676e-16
      vertex -7.343088e+00 1.483445e+01 4.775251e-18
      vertex -7.205162e+00 1.489166e+01 2.454488e-17
    endloop
  endfacet
  facet normal 2.449294e-16 -2.449294e-16 -1.000000e+00
    outer loop
      vertex 7.205162e+00 1.489166e+01 3.554056e-15
      vertex 7.343088e+00 1.483445e+01 3.601851e-15
      vertex 5.500000e+00 1.279441e+01 3.650091e-15
    endloop
  endfacet
  facet normal 2.449294e-16 -2.449294e-16 -1.000000e+00
    outer loop
      vertex -6.057741e+00 -5.493860e+00 5.298595e-15
      vertex -5.352686e+00 -7.182238e+00 5.884816e-15
      vertex -9.369303e+00 -8.400753e+00 5.199479e-15
    endloop
  endfacet
  facet normal 2.449294e-16 -2.449294e-16 -1.000000e+00
    outer loop
      vertex -4.188839e+00 1.275324e+01 1.287092e-15
      vertex -4.322555e+00 1.274124e+01 1.257281e-15
      vertex -3.800000e+00 1.324073e+01 1.262930e-15
    endloop
  endfacet
  facet normal 2.449294e-16 -2.449294e-16 -1.000000e+00
    outer loop
      vertex -7.056491e+00 1.490559e+01 5.754687e-17
      vertex -6.910338e+00 1.487500e+01 1.008375e-16
      vertex -5.500000e+00 1.279441e+01 9.558676e-16
    endloop
  endfacet
  facet normal 2.449294e-16 -2.449294e-16 -1.000000e+00
    outer loop
      vertex 5.500000e+00 1.279441e+01 3.650091e-15
      vertex 7.580588e+00 1.447043e+01 3.749181e-15
      vertex 9.917626e+00 -3.624701e+00 8.753619e-15
    endloop
  endfacet
  facet normal 2.449294e-16 -2.449294e-16 -1.000000e+00
    outer loop
      vertex -3.800000e+00 1.371764e+01 1.146120e-15
      vertex -3.800000e+00 1.324073e+01 1.262930e-15
      vertex -5.500000e+00 1.279441e+01 9.558676e-16
    endloop
  endfacet
  facet normal 2.449294e-16 -2.449294e-16 -1.000000e+00
    outer loop
      vertex -4.322555e+00 1.274124e+01 1.257281e-15
      vertex -5.500000e+00 1.279441e+01 9.558676e-16
      vertex -3.800000e+00 1.324073e+01 1.262930e-15
    endloop
  endfacet
  facet normal 2.449294e-16 -2.449294e-16 -1.000000e+00
    outer loop
      vertex 3.800000e+00 1.324073e+01 3.124393e-15
      vertex 3.800000e+00 1.371764e+01 3.007583e-15
      vertex 4.322555e+00 1.274124e+01 3.374722e-15
    endloop
  endfacet
  facet normal -4.511039e-02 -9.989820e-01 2.336312e-16
    outer loop
      vertex -5.500000e+00 1.279441e+01 4.000000e+00
      vertex -5.500000e+00 1.279441e+01 9.558676e-16
      vertex -4.322555e+00 1.274124e+01 1.257281e-15
    endloop
  endfacet
  facet normal -4.511039e-02 -9.989820e-01 2.336312e-16
    outer loop
      vertex -4.322555e+00 1.274124e+01 1.257281e-15
      vertex -4.322555e+00 1.274124e+01 4.000000e+00
      vertex -5.500000e+00 1.279441e+01 4.000000e+00
    endloop
  endfacet
  facet normal 9.989820e-01 -4.511039e-02 2.557289e-16
    outer loop
      vertex -6.243638e+00 -3.673651e+00 4.000000e+00
      vertex -6.243638e+00 -3.673651e+00 4.807240e-15
      vertex -5.500000e+00 1.279441e+01 9.558676e-16
    endloop
  endfacet
  facet normal 9.989820e-01 -4.511039e-02 2.557289e-16
    outer loop
      vertex -5.500000e+00 1.279441e+01 9.558676e-16
      vertex -5.500000e+00 1.279441e+01 4.000000e+00
      vertex -6.243638e+00 -3.673651e+00 4.000000e+00
    endloop
  endfacet
  facet normal 9.909470e-01 -1.342536e-01 2.755947e-16
    outer loop
      vertex -3.818024e+00 1.310769e+01 4.000000e+00
      vertex -3.818024e+00 1.310769e+01 1.291100e-15
      vertex -3.800000e+00 1.324073e+01 1.262930e-15
    endloop
  endfacet
  facet normal 9.195036e-01 -3.930815e-01 3.214906e-16
    outer loop
      vertex -3.870797e+00 1.298425e+01 4.000000e+00
      vertex -3.870797e+00 1.298425e+01 1.308411e-15
      vertex -3.818024e+00 1.310769e+01 1.291100e-15
    endloop
  endfacet
  facet normal 7.817676e-01 -6.235698e-01 3.442084e-16
    outer loop
      vertex -3.954513e+00 1.287929e+01 4.000000e+00
      vertex -3.954513e+00 1.287929e+01 1.313612e-15
      vertex -3.870797e+00 1.298425e+01 1.308411e-15
    endloop
  endfacet
  facet normal 5.876693e-01 -8.091013e-01 3.421101e-16
    outer loop
      vertex -4.063138e+00 1.280039e+01 4.000000e+00
      vertex -4.063138e+00 1.280039e+01 1.306331e-15
      vertex -3.954513e+00 1.287929e+01 1.313612e-15
    endloop
  endfacet
  facet normal 3.512022e-01 -9.362996e-01 3.153470e-16
    outer loop
      vertex -4.188839e+00 1.275324e+01 4.000000e+00
      vertex -4.188839e+00 1.275324e+01 1.287092e-15
      vertex -4.063138e+00 1.280039e+01 1.306331e-15
    endloop
  endfacet
  facet normal 8.941489e-02 -9.959944e-01 2.658486e-16
    outer loop
      vertex -4.322555e+00 1.274124e+01 4.000000e+00
      vertex -4.322555e+00 1.274124e+01 1.257281e-15
      vertex -4.188839e+00 1.275324e+01 1.287092e-15
    endloop
  endfacet
  facet normal 8.941489e-02 -9.959944e-01 2.658486e-16
    outer loop
      vertex -4.188839e+00 1.275324e+01 1.287092e-15
      vertex -4.188839e+00 1.275324e+01 4.000000e+00
      vertex -4.322555e+00 1.274124e+01 4.000000e+00
    endloop
  endfacet
  facet normal 3.512022e-01 -9.362996e-01 3.153470e-16
    outer loop
      vertex -4.063138e+00 1.280039e+01 1.306331e-15
      vertex -4.063138e+00 1.280039e+01 4.000000e+00
      vertex -4.188839e+00 1.275324e+01 4.000000e+00
    endloop
  endfacet
  facet normal 5.876693e-01 -8.091013e-01 3.421101e-16
    outer loop
      vertex -3.954513e+00 1.287929e+01 1.313612e-15
      vertex -3.954513e+00 1.287929e+01 4.000000e+00
      vertex -4.063138e+00 1.280039e+01 4.000000e+00
    endloop
  endfacet
  facet normal 7.817676e-01 -6.235698e-01 3.442084e-16
    outer loop
      vertex -3.870797e+00 1.298425e+01 1.308411e-15
      vertex -3.870797e+00 1.298425e+01 4.000000e+00
      vertex -3.954513e+00 1.287929e+01 4.000000e+00
    endloop
  endfacet
  facet normal 9.195036e-01 -3.930815e-01 3.214906e-16
    outer loop
      vertex -3.818024e+00 1.310769e+01 1.291100e-15
      vertex -3.818024e+00 1.310769e+01 4.000000e+00
      vertex -3.870797e+00 1.298425e+01 4.000000e+00
    endloop
  endfacet
  facet normal 9.909470e-01 -1.342536e-01 2.755947e-16
    outer loop
      vertex -3.800000e+00 1.324073e+01 1.262930e-15
      vertex -3.800000e+00 1.324073e+01 4.000000e+00
      vertex -3.818024e+00 1.310769e+01 4.000000e+00
    endloop
  endfacet
endsolid Default
